<?xml version="1.0" encoding="UTF-8"?>
<svg id="Layer_2" data-name="Layer 2" xmlns="http://www.w3.org/2000/svg" viewBox="0 0 455.75 455.01">
  <g id="App">
    <g>
      <path d="M280.11,454.9c-47.27-3.21-74.35-41.69-104.95-72.42-.59-.59-1.36-.93-1.95-1.52-18.49-18.58-37.51-39.87-56.8-57.21-22.64-20.37-49.62-38.06-72.04-58.53-30.51-27.87,5.32-74.37,40.18-51.35l69.59,56.16-106.32-106.48c-25.98-30.73,12.74-72.15,45.26-46.8l93.02,92.43-91.48-122.86c-17.77-35.74,27.82-66.52,54.5-35.62l94.76,126.13-63.23-106.05c-18.89-38.18,32.48-68.51,56.85-32.19l77.25,129.2c13.05,18.05,26.26,36.01,40.26,53.34,1.77-13.13,3.16-26.16,6.93-38.9,6.34-21.4,20.76-42.63,38.14-56.61,11.45-9.22,30.43-18.89,44.53-9.88s8.14,23.79,6.55,36.7c-3.71,30.15-7.09,64.74-.71,94.58,2.59,12.13,4.84,20.8,5.27,33.44v8.09c-.64.4-.39,1.46-.39,2.11-.35,33.64-14.26,65.39-36.96,89.76-27.49,29.5-67.74,63-107.85,72.02l-14.64,2.5c-5.17-.26-10.66.35-15.79,0ZM206.07,37.48c-10.66,1.46-17.44,14.1-13.3,23.89l73.16,122.5c6.68,14.72-14.81,28.1-24.71,14.69L137.59,60.31c-14.88-16.99-38.92-1.27-29.85,18.68l106.96,143.39c5.08,11.12-9.31,24.15-19.69,17l-111.75-111.26c-17.6-12.84-37.35,7.41-24.94,24.55l109.13,109.26c8.59,10.1-2.32,26.26-14.61,24.62-3.92-.52-8.12-4.51-11.19-6.91-21.23-16.57-41.82-35.96-63.41-51.76-21.43-15.68-40.44,10.33-24.23,25.77,23.04,20.18,49.33,38.16,72.04,58.53,19.63,17.61,39.59,39.43,58.36,58.35,33.51,33.78,62.13,76.91,116.58,68.46,38.72-6.01,79.81-40.29,105.85-68.24,24.17-25.94,35.65-57.92,33.9-93.62-.64-13.08-5.07-24.7-6.89-37.4-3.74-26.1-1.55-56.14,1.53-82.32.86-7.3,3.16-16.58,3.42-23.56.27-7.12-6.16-7.23-11.5-6.09-18.82,4.02-40.65,31.94-47.61,49.06-7.29,17.91-7.29,34-10.28,52.5-.97,5.99-3.17,14.07-10.9,13.75-6.28-.26-13.32-10.19-17.15-14.85-13.61-16.56-25.8-34.32-38.68-51.44L223.27,44.34c-4.36-5.05-10.45-7.79-17.2-6.87ZM244.67,177.96v-.77h-.38v.77h.38Z"/>
      <path d="M.52,367.49l-.52-2.65c.93-1.26.75-2.88,1.72-4.26,2.36-3.38,7.13-4.39,10.59-2.1,2.26,1.5,5.43,8.5,7.2,11.26,28.05,43.87,75.45,68.44,127.81,63.22,7.74,1.82,7.6,12.82.12,14.7-4.61,1.16-15.18.82-20.28.66-54.11-1.64-99.48-32.82-125.45-79.44-.31-.56-.35-1.33-1.19-1.41Z"/>
      <path d="M283.82,0c5.89.84,11.75,2.94,17.35,4.98,39.74,14.52,78.85,42.59,97.52,81.63,1.51,3.16,4.69,9.32,4.66,12.63-.04,5.6-7.39,9.15-11.89,5.78-2.72-2.04-6.56-12.57-8.6-16.37-17.94-33.39-52.87-57.34-87.84-69.94-3.82-1.38-10.32-2.65-13.53-4.28-5.89-2.98-5.09-11.02.48-13.91l1.85-.52Z"/>
      <path d="M43.78,328.47c8.36-3.49,10.08,3.96,13.31,9.28,17.42,28.67,44.3,49,78.62,50.98,4.46.26,9.25-.37,13.5-.07,9.07.65,9.24,13.17,1.08,14.9-2.86.61-8.78.34-11.92.27-36.69-.84-68.13-20.31-88.78-50.01-2.88-4.14-9.89-14.43-9.8-19.17.04-2.32,1.85-5.27,4-6.17Z"/>
      <path d="M276.66,40.5c1.22-.56,2.3-.65,3.62-.59,2.93.12,11.28,4.19,14.31,5.67,28.97,14.18,56.75,38.12,72.11,66.8,1.8,3.36,5.54,10.16,6.37,13.58,2,8.24-9.43,13.04-13.83,5.81-3.03-4.98-5.26-11.61-8.52-17.08-14.17-23.75-37.79-43.07-62.28-55.39-3.14-1.58-12.25-4.69-14.04-6.7-3.37-3.77-2.36-9.99,2.27-12.1Z"/>
      <path d="M324.69,248.93c4.72-.82,9.14,2.12,9.36,7.05.12,2.61-4.37,10.56-5.59,13.66-8.56,21.76-10.94,47.66,3.34,67.52,1.4,1.95,3.73,4.07,4.87,5.91,4.65,7.52-5.09,16.41-12.85,8.22-23.23-24.52-20.12-64.47-6.8-93.09,1.58-3.39,3.55-8.56,7.67-9.28Z"/>
    </g>
  </g>
</svg>